<svg xmlns="http://www.w3.org/2000/svg" xml:space="preserve" viewBox="0 0 64 64"><style>.st1{fill:#fff}.st2{fill:#f93}</style><g id="Layer_11"><path fill="#e6162d" d="M20.8 23s-9 5-12.1 13.7S15.2 52 26.5 52s18.2-5.8 19.9-10.5c1.7-4.7-2.1-7-3.3-7.6-1.1-.6-2.2-.7-2.5-1.1-.2-.3.3-1.3.3-1.3s1.1-3.3-1-4.6c-2.2-1.3-5.7-.5-7.4.2-1.8.6-2.3 1-2.6.7-.3-.2.2-1 .3-1.9.1-.9.6-3.8-2.1-4.6-2.7-.7-7.3 1.7-7.3 1.7z"/><ellipse cx="25.9" cy="40.7" class="st1" rx="13.4" ry="8.9" transform="rotate(-5.081 25.926 40.72) scale(1.00003)"/><ellipse cx="24.9" cy="41.6" rx="7.1" ry="6.1" transform="rotate(-18.396 24.906 41.635)"/><ellipse cx="22.7" cy="42.8" class="st1" rx="2.6" ry="2.2" transform="rotate(-34.045 22.7 42.778)"/><ellipse cx="26.9" cy="39.4" class="st1" rx="1" ry=".8" transform="rotate(-33.423 26.87 39.354)"/><path d="M52.4 31.2c-.3 0-.8-.1-1.1-.3-1-.6-1.4-1.9-.7-3s1.1-2.6 1.1-4c0-4.2-3.4-7.8-7.8-7.8-1.1 0-2.4.2-3.4.8-1 .6-2.3.1-2.9-1-.6-1-.1-2.3 1-2.9 1.7-.8 3.6-1.3 5.4-1.3 6.5 0 12 5.4 12 12 0 2.2-.6 4.4-1.8 6.3-.3.9-1.1 1.2-1.8 1.2z" class="st2"/><path d="M45.7 30.8c-.5 0-1-.2-1.4-.5-1-.7-1.1-2.1-.3-3 .3-.3.5-1 .6-1.5 0-1.3-1-2.4-2.2-2.5h-.2c-.5 0-1 .2-1.3.3-1 .6-2.3.3-3-.6-.6-1-.3-2.3.6-3 1.1-.8 2.6-1.1 4.1-1 3.6.2 6.2 3.2 6.2 6.6v.1c0 1.5-.5 2.9-1.4 4.1-.4.7-1.1 1-1.7 1z" class="st2"/></g></svg>