<svg xmlns="http://www.w3.org/2000/svg" xml:space="preserve" viewBox="0 0 64 64"><style>.st0{fill:#1296db}</style><path d="M19.7 13.3c.8-.4 1.7-.5 2.5-.2.6.3 1 .7 1.6 1.1 2 1.7 4 3.5 6 5.2h4.3c2-1.7 4-3.5 6-5.2.5-.4 1-.9 1.6-1.1.8-.3 1.7-.3 2.4.1.9.4 1.5 1.4 1.6 2.4.1.7-.2 1.5-.6 2-.4.4-.9.8-1.3 1.2-.3.3-.5.5-.9.7h3.8c1.7 0 3.2.8 4.4 2 1.2 1.1 1.9 2.9 1.9 4.5v17.3c0 .9 0 1.7-.2 2.6-.3 1.7-1.6 3.2-3.1 4.2-1 .6-2.2 1-3.4 1H18.9c-.9 0-1.8.1-2.7-.2-1.7-.3-3.1-1.5-4.1-2.9-.7-1-1-2.3-1-3.6v-17c0-.9-.1-1.7.1-2.6.5-2.8 3.1-5.1 6-5.2h3.9c-.6-.4-1.1-1-1.7-1.5-.7-.6-1.1-1.5-1-2.4-.1-1 .5-2 1.3-2.4M19 25.1c-1.1.2-2.1 1-2.4 2.2-.1.3-.1.7-.1 1.1v14.2c0 1.3.9 2.5 2.1 2.9.4.2.9.2 1.3.2h24.4c1.2.1 2.4-.7 2.9-1.7.3-.6.3-1.3.3-2V28.6c0-.5 0-1-.1-1.5-.3-1-1-1.7-1.9-2-.5-.1-1.1-.1-1.7-.1H20.4c-.4 0-.9 0-1.4.1z" class="st0"/><path d="M24 29.6c.8-.1 1.6.2 2.2.7.7.5 1 1.4 1 2.3v3.1c0 .7-.2 1.4-.6 1.9-.6.8-1.6 1.2-2.5 1.1s-1.8-.6-2.4-1.5c-.3-.6-.3-1.3-.3-2 0-1-.1-2 .1-3 0-1.5 1.1-2.5 2.5-2.6zm15.5 0c1.6-.2 3.1 1 3.2 2.6v3.1c0 .7-.1 1.4-.4 2-.5.9-1.6 1.5-2.6 1.4-1-.1-1.7-.5-2.3-1.3-.4-.6-.5-1.4-.5-2.1v-3c0-1.5 1.3-2.6 2.6-2.7z" class="st0"/></svg>