<svg xmlns="http://www.w3.org/2000/svg" xml:space="preserve" viewBox="0 0 64 64"><path fill="#1b80e4" d="M37.2 24.4c2.6.6 5.3-1.6 6.2-5.1 1.1-4.5-1.4-7.2-3.1-7.5-2.7-.3-5.3 1.6-6.2 5.1-.9 3.6.5 6.9 3.1 7.5zm-5.7-7c0 3.5-2.1 6.4-4.7 6.4s-4.7-2.9-4.7-6.4 2.1-6.4 4.7-6.4 4.7 2.9 4.7 6.4zm14.8 6.1c-2.7.1-4.8 2.6-4.7 6.6.1 3.9 2.2 5.8 5 5.7 2.7-.1 4.8-1.9 4.7-5.9-.1-5.1-4.3-6.4-5-6.4zM17 20.6c2.7-.2 5 2.6 5.2 6.1s-1.7 6.6-4.3 6.7-5-2.6-5.2-6.1c-.2-3.5 1.8-6.6 4.3-6.7zm26.8 17.9c-2.3-2-4.3-3.7-7.3-8-1.5-2.1-3.2-2.3-5.1-2.3-1.8 0-3.8.6-5.2 2.7-1.4 2.1-3.1 4.2-6.4 6.9-3.2 2.7-4.7 4.6-4.7 7.4 0 2.7 1.6 7.4 6 7.4 4.5 0 6.7-1 10.2-1s6 1.4 10.5 1.4 6.3-4.3 6.3-7c.1-2.9-.6-4.4-4.3-7.5z"/></svg>