<svg xmlns="http://www.w3.org/2000/svg" xml:space="preserve" viewBox="0 0 64 64"><path fill="none" d="M11 11h42v42H11V11z"/><path fill="#fbbc05" fill-rule="evenodd" d="M20 32c0-1.4.3-2.7.6-3.9l-7-5.3c-1.4 2.8-2.2 6-2.2 9.3s.8 6.5 2.2 9.3l7.1-5.4c-.4-1.4-.7-2.7-.7-4" clip-rule="evenodd"/><path fill="#ea4335" fill-rule="evenodd" d="M32.4 19.6c3 0 5.6 1.1 7.7 2.8l6.1-6.1C42.5 13 37.8 11 32.4 11c-8.3 0-15.4 4.7-18.8 11.7l7.1 5.4c1.7-5.1 6.4-8.5 11.7-8.5" clip-rule="evenodd"/><path fill="#34a853" fill-rule="evenodd" d="M32.4 44.4c-5.3 0-10.1-3.4-11.8-8.5l-7 5.3C17 48.3 24.1 53 32.4 53c5.2 0 10.1-1.8 13.7-5.2l-6.7-5.2c-1.8 1.1-4.3 1.8-7 1.8" clip-rule="evenodd"/><path fill="#4285f4" fill-rule="evenodd" d="M52.6 32c0-1.2-.2-2.5-.4-3.9H32.4v8.1h11.3c-.5 2.8-2.1 4.9-4.3 6.3l6.7 5.2c3.9-3.5 6.5-8.9 6.5-15.7" clip-rule="evenodd"/></svg>