<svg xmlns="http://www.w3.org/2000/svg" viewBox="0 0 48 48"><path d="M14.5,22.42a7,7,0,0,1-7-7V14a7,7,0,0,1,7-7h1.42a7,7,0,0,1,7,7v7.42a1,1,0,0,1-1,1Z" style="fill:#eb6e7a"/><path d="M15.93,8a6,6,0,0,1,6,6v7.43H14.5a6,6,0,0,1-6-6V14a6,6,0,0,1,6-6h1.43m0-2H14.5a8,8,0,0,0-8,8v1.43a8,8,0,0,0,8,8h7.43a2,2,0,0,0,2-2V14a8,8,0,0,0-8-8Z"/><path d="M14.5,41a7,7,0,0,1-7-7V32.58a7,7,0,0,1,7-7h7.42a1,1,0,0,1,1,1V34a7,7,0,0,1-7,7Z" style="fill:#8ac5dc"/><path d="M21.93,26.57V34a6,6,0,0,1-6,6H14.5a6,6,0,0,1-6-6V32.57a6,6,0,0,1,6-6h7.43m0-2H14.5a8,8,0,0,0-8,8V34a8,8,0,0,0,8,8h1.43a8,8,0,0,0,8-8V26.57a2,2,0,0,0-2-2Z"/><path d="M33.08,41a7,7,0,0,1-7-7V26.58a1,1,0,0,1,1-1H34.5a7,7,0,0,1,7,7V34a7,7,0,0,1-7,7Z" style="fill:#fce8cb"/><path d="M34.5,26.57a6,6,0,0,1,6,6V34a6,6,0,0,1-6,6H33.07a6,6,0,0,1-6-6V26.57H34.5m0-2H27.07a2,2,0,0,0-2,2V34a8,8,0,0,0,8,8H34.5a8,8,0,0,0,8-8V32.57a8,8,0,0,0-8-8Z"/><path d="M27.08,22.42a1,1,0,0,1-1-1V14a7,7,0,0,1,7-7H34.5a7,7,0,0,1,7,7v1.42a7,7,0,0,1-7,7Z" style="fill:#d5dc57"/><path d="M34.5,8a6,6,0,0,1,6,6v1.43a6,6,0,0,1-6,6H27.07V14a6,6,0,0,1,6-6H34.5m0-2H33.07a8,8,0,0,0-8,8v7.43a2,2,0,0,0,2,2H34.5a8,8,0,0,0,8-8V14a8,8,0,0,0-8-8Z"/></svg>